# xmcd CD database file
#
# Track frame offsets:
#	150
#	25722
#	47510
#	77362
#	110430
#	145675
#	166945
#	195912
#	222162
#	248237
#	262882
#	283447
#	300817
#
# Disc length: 4286 seconds
#
# Revision: 1
# Processed by: cddbd v1.5.2PL0 Copyright (c) Steve Scherf et al.
# Submitted via: CDex 1.51
#
DISCID=9e10bc0d
DTITLE=Various Artist - Blue Note 50th Anniversary Collection, Vol. 5, "Lighting The Fuse" 1970 - 1989
DYEAR=1989
DGENRE=Jazz
TTITLE0=Grant Green - The Windjammer
TTITLE1=Earl Klugh - Angelina
TTITLE2=Noel Pointer - Living For The City
TTITLE3=Donald Byrd - Black Byrd
TTITLE4=Bobbi Humphrey - Harlem River Drive
TTITLE5=Ronnie Laws - Always There
TTITLE6=Stanley Jordan - The Lady In My Life
TTITLE7=Stanley Turrentine - Boogie On Reggae Woman
TTITLE8=Bennie Wallace - All Night Dance
TTITLE9=Bobby McFerrin - Thinkin' About Your Body
TTITLE10=Dianne Reeves - Beter Days
TTITLE11=Dianne Reeves - Never Said
TTITLE12=Bireli Lagrene - Timothee
EXTD=YEAR: 1989
EXTT0=
EXTT1=
EXTT2=
EXTT3=
EXTT4=
EXTT5=
EXTT6=
EXTT7=
EXTT8=
EXTT9=
EXTT10=
EXTT11=
EXTT12=
PLAYORDER=
